<svg width="300" height="301" viewBox="0 0 300 301" fill="none" xmlns="http://www.w3.org/2000/svg">
<path d="M100.314 43.6023C100.314 43.6023 54.852 66.7623 32.178 102.45C9.50404 138.138 11.298 184.05 38.85 218.13C66.402 252.21 119.064 247.734 163.158 269.322C207.252 290.91 255.9 286.464 276.75 240.726C297.6 194.988 266.16 177.894 260.76 124.962C255.36 72.0303 207.642 -5.47769 100.314 43.6023Z" fill="white"/>
<path opacity="0.7" d="M100.314 43.6023C100.314 43.6023 54.852 66.7623 32.178 102.45C9.50404 138.138 11.298 184.05 38.85 218.13C66.402 252.21 119.064 247.734 163.158 269.322C207.252 290.91 255.9 286.464 276.75 240.726C297.6 194.988 266.16 177.894 260.76 124.962C255.36 72.0303 207.642 -5.47769 100.314 43.6023Z" fill="white"/>
<path d="M102.63 74.2503H51.1021V121.044H102.63V74.2503Z" fill="white"/>
<mask id="mask0_212_4255" style="mask-type:luminance" maskUnits="userSpaceOnUse" x="51" y="74" width="52" height="48">
<path d="M102.63 74.2503H51.1021V121.044H102.63V74.2503Z" fill="white"/>
</mask>
<g mask="url(#mask0_212_4255)">
<path opacity="0.37" d="M102.63 74.2503H51.1021V121.044H102.63V74.2503Z" fill="black"/>
</g>
<path d="M87.8221 74.2503H51.1021V121.044H87.8221V74.2503Z" fill="white"/>
<path d="M73.1881 74.2503H65.2981V87.3123H73.1881V74.2503Z" fill="white"/>
<path d="M84.3481 91.1283H75.2041V95.7963H84.3481V91.1283Z" fill="white"/>
<path d="M80.1625 107.754L70.7388 105.422L69.3493 111.037L78.773 113.369L80.1625 107.754Z" fill="white"/>
<path d="M141.03 74.2503H89.502V121.044H141.03V74.2503Z" fill="white"/>
<mask id="mask1_212_4255" style="mask-type:luminance" maskUnits="userSpaceOnUse" x="89" y="74" width="53" height="48">
<path d="M141.03 74.2503H89.502V121.044H141.03V74.2503Z" fill="white"/>
</mask>
<g mask="url(#mask1_212_4255)">
<path opacity="0.37" d="M141.03 74.2503H89.502V121.044H141.03V74.2503Z" fill="black"/>
</g>
<path d="M126.222 74.2503H89.502V121.044H126.222V74.2503Z" fill="white"/>
<path d="M111.588 74.2503H103.698V87.3123H111.588V74.2503Z" fill="white"/>
<path d="M122.748 91.1283H113.604V95.7963H122.748V91.1283Z" fill="white"/>
<path d="M118.56 107.757L109.136 105.425L107.747 111.04L117.17 113.372L118.56 107.757Z" fill="white"/>
<path d="M179.43 74.2503H127.902V121.044H179.43V74.2503Z" fill="white"/>
<mask id="mask2_212_4255" style="mask-type:luminance" maskUnits="userSpaceOnUse" x="127" y="74" width="53" height="48">
<path d="M179.43 74.2503H127.902V121.044H179.43V74.2503Z" fill="white"/>
</mask>
<g mask="url(#mask2_212_4255)">
<path opacity="0.37" d="M179.43 74.2503H127.902V121.044H179.43V74.2503Z" fill="black"/>
</g>
<path d="M164.622 74.2503H127.902V121.044H164.622V74.2503Z" fill="white"/>
<path d="M149.988 74.2503H142.098V87.3123H149.988V74.2503Z" fill="white"/>
<path d="M161.148 91.1283H152.004V95.7963H161.148V91.1283Z" fill="white"/>
<path d="M156.957 107.76L147.534 105.428L146.144 111.042L155.568 113.374L156.957 107.76Z" fill="white"/>
<path d="M217.83 74.2503H166.302V121.044H217.83V74.2503Z" fill="white"/>
<mask id="mask3_212_4255" style="mask-type:luminance" maskUnits="userSpaceOnUse" x="166" y="74" width="52" height="48">
<path d="M217.83 74.2503H166.302V121.044H217.83V74.2503Z" fill="white"/>
</mask>
<g mask="url(#mask3_212_4255)">
<path opacity="0.37" d="M217.83 74.2503H166.302V121.044H217.83V74.2503Z" fill="black"/>
</g>
<path d="M203.022 74.2503H166.302V121.044H203.022V74.2503Z" fill="white"/>
<path d="M188.388 74.2503H180.498V87.3123H188.388V74.2503Z" fill="white"/>
<path d="M199.548 91.1283H190.404V95.7963H199.548V91.1283Z" fill="white"/>
<path d="M195.361 107.763L185.937 105.43L184.548 111.045L193.971 113.377L195.361 107.763Z" fill="white"/>
<path d="M102.63 138.45H51.1021V185.244H102.63V138.45Z" fill="white"/>
<mask id="mask4_212_4255" style="mask-type:luminance" maskUnits="userSpaceOnUse" x="51" y="138" width="52" height="48">
<path d="M102.63 138.45H51.1021V185.244H102.63V138.45Z" fill="white"/>
</mask>
<g mask="url(#mask4_212_4255)">
<path opacity="0.37" d="M102.63 138.45H51.1021V185.244H102.63V138.45Z" fill="black"/>
</g>
<path d="M87.8221 138.45H51.1021V185.244H87.8221V138.45Z" fill="white"/>
<path d="M73.1881 138.45H65.2981V151.512H73.1881V138.45Z" fill="white"/>
<path d="M84.3481 155.328H75.2041V159.996H84.3481V155.328Z" fill="white"/>
<path d="M80.1537 171.952L70.73 169.62L69.3405 175.235L78.7642 177.567L80.1537 171.952Z" fill="white"/>
<path d="M141.03 138.45H89.502V185.244H141.03V138.45Z" fill="white"/>
<mask id="mask5_212_4255" style="mask-type:luminance" maskUnits="userSpaceOnUse" x="89" y="138" width="53" height="48">
<path d="M141.03 138.45H89.502V185.244H141.03V138.45Z" fill="white"/>
</mask>
<g mask="url(#mask5_212_4255)">
<path opacity="0.37" d="M141.03 138.45H89.502V185.244H141.03V138.45Z" fill="black"/>
</g>
<path d="M126.222 138.45H89.502V185.244H126.222V138.45Z" fill="white"/>
<path d="M111.588 138.45H103.698V151.512H111.588V138.45Z" fill="white"/>
<path d="M122.748 155.328H113.604V159.996H122.748V155.328Z" fill="white"/>
<path d="M118.557 171.955L109.134 169.623L107.744 175.238L117.168 177.57L118.557 171.955Z" fill="white"/>
<path d="M179.43 138.45H127.902V185.244H179.43V138.45Z" fill="white"/>
<mask id="mask6_212_4255" style="mask-type:luminance" maskUnits="userSpaceOnUse" x="127" y="138" width="53" height="48">
<path d="M179.43 138.45H127.902V185.244H179.43V138.45Z" fill="white"/>
</mask>
<g mask="url(#mask6_212_4255)">
<path opacity="0.37" d="M179.43 138.45H127.902V185.244H179.43V138.45Z" fill="black"/>
</g>
<path d="M164.622 138.45H127.902V185.244H164.622V138.45Z" fill="white"/>
<path d="M149.988 138.45H142.098V151.512H149.988V138.45Z" fill="white"/>
<path d="M161.148 155.328H152.004V159.996H161.148V155.328Z" fill="white"/>
<path d="M156.955 171.958L147.531 169.626L146.142 175.24L155.565 177.572L156.955 171.958Z" fill="white"/>
<path d="M217.83 138.45H166.302V185.244H217.83V138.45Z" fill="white"/>
<mask id="mask7_212_4255" style="mask-type:luminance" maskUnits="userSpaceOnUse" x="166" y="138" width="52" height="48">
<path d="M217.83 138.45H166.302V185.244H217.83V138.45Z" fill="white"/>
</mask>
<g mask="url(#mask7_212_4255)">
<path opacity="0.37" d="M217.83 138.45H166.302V185.244H217.83V138.45Z" fill="black"/>
</g>
<path d="M203.022 138.45H166.302V185.244H203.022V138.45Z" fill="white"/>
<path d="M188.388 138.45H180.498V151.512H188.388V138.45Z" fill="white"/>
<path d="M199.548 155.328H190.404V159.996H199.548V155.328Z" fill="white"/>
<path d="M195.352 171.961L185.929 169.628L184.539 175.243L193.963 177.575L195.352 171.961Z" fill="white"/>
<path d="M102.63 202.65H51.1021V249.444H102.63V202.65Z" fill="white"/>
<mask id="mask8_212_4255" style="mask-type:luminance" maskUnits="userSpaceOnUse" x="51" y="202" width="52" height="48">
<path d="M102.63 202.65H51.1021V249.444H102.63V202.65Z" fill="white"/>
</mask>
<g mask="url(#mask8_212_4255)">
<path opacity="0.37" d="M102.63 202.65H51.1021V249.444H102.63V202.65Z" fill="black"/>
</g>
<path d="M87.8221 202.65H51.1021V249.444H87.8221V202.65Z" fill="white"/>
<path d="M73.1881 202.65H65.2981V215.712H73.1881V202.65Z" fill="white"/>
<path d="M84.3481 219.528H75.2041V224.196H84.3481V219.528Z" fill="white"/>
<path d="M80.1513 236.15L70.7275 233.818L69.3381 239.433L78.7618 241.765L80.1513 236.15Z" fill="white"/>
<path d="M141.03 202.65H89.502V249.444H141.03V202.65Z" fill="white"/>
<mask id="mask9_212_4255" style="mask-type:luminance" maskUnits="userSpaceOnUse" x="89" y="202" width="53" height="48">
<path d="M141.03 202.65H89.502V249.444H141.03V202.65Z" fill="white"/>
</mask>
<g mask="url(#mask9_212_4255)">
<path opacity="0.37" d="M141.03 202.65H89.502V249.444H141.03V202.65Z" fill="black"/>
</g>
<path d="M126.222 202.65H89.502V249.444H126.222V202.65Z" fill="white"/>
<path d="M111.588 202.65H103.698V215.712H111.588V202.65Z" fill="white"/>
<path d="M122.748 219.528H113.604V224.196H122.748V219.528Z" fill="white"/>
<path d="M118.555 236.153L109.131 233.821L107.741 239.436L117.165 241.768L118.555 236.153Z" fill="white"/>
<path d="M179.43 202.65H127.902V249.444H179.43V202.65Z" fill="white"/>
<mask id="mask10_212_4255" style="mask-type:luminance" maskUnits="userSpaceOnUse" x="127" y="202" width="53" height="48">
<path d="M179.43 202.65H127.902V249.444H179.43V202.65Z" fill="white"/>
</mask>
<g mask="url(#mask10_212_4255)">
<path opacity="0.37" d="M179.43 202.65H127.902V249.444H179.43V202.65Z" fill="black"/>
</g>
<path d="M164.622 202.65H127.902V249.444H164.622V202.65Z" fill="white"/>
<path d="M149.988 202.65H142.098V215.712H149.988V202.65Z" fill="white"/>
<path d="M161.148 219.528H152.004V224.196H161.148V219.528Z" fill="white"/>
<path d="M156.952 236.156L147.529 233.824L146.139 239.438L155.563 241.77L156.952 236.156Z" fill="white"/>
<path d="M217.83 202.65H166.302V249.444H217.83V202.65Z" fill="white"/>
<mask id="mask11_212_4255" style="mask-type:luminance" maskUnits="userSpaceOnUse" x="166" y="202" width="52" height="48">
<path d="M217.83 202.65H166.302V249.444H217.83V202.65Z" fill="white"/>
</mask>
<g mask="url(#mask11_212_4255)">
<path opacity="0.37" d="M217.83 202.65H166.302V249.444H217.83V202.65Z" fill="black"/>
</g>
<path d="M203.022 202.65H166.302V249.444H203.022V202.65Z" fill="white"/>
<path d="M188.388 202.65H180.498V215.712H188.388V202.65Z" fill="white"/>
<path d="M199.548 219.528H190.404V224.196H199.548V219.528Z" fill="white"/>
<path d="M195.35 236.159L185.926 233.826L184.537 239.441L193.96 241.773L195.35 236.159Z" fill="white"/>
<path d="M222.6 57.0543H42.6001V65.4543H222.6V57.0543Z" fill="#A3A3A3"/>
<path d="M222.6 119.454H42.6001V127.854H222.6V119.454Z" fill="#A3A3A3"/>
<path d="M222.6 181.848H42.6001V190.248H222.6V181.848Z" fill="#A3A3A3"/>
<path d="M222.6 244.248H42.6001V252.648H222.6V244.248Z" fill="#A3A3A3"/>
<path d="M256.8 21.6543H249V276.654H256.8V21.6543Z" fill="#7A7A7A"/>
<path d="M90.6 21.6543H82.8V276.654H90.6V21.6543Z" fill="#7A7A7A"/>
<path d="M255 57.0543H218.4V65.4543H255V57.0543Z" fill="#757575"/>
<path d="M255 119.454H218.4V127.854H255V119.454Z" fill="#757575"/>
<path d="M255 181.848H218.4V190.248H255V181.848Z" fill="#757575"/>
<path d="M255 244.248H218.4V252.648H255V244.248Z" fill="#757575"/>
<path d="M49.8 21.6543H42V276.654H49.8V21.6543Z" fill="#A3A3A3"/>
<path d="M136.2 21.6543H128.4V276.654H136.2V21.6543Z" fill="#A3A3A3"/>
<path d="M222.6 21.6543H214.8V276.654H222.6V21.6543Z" fill="#A3A3A3"/>
<path d="M206.838 110.28H145.626V165.864H206.838V110.28Z" fill="white"/>
<mask id="mask12_212_4255" style="mask-type:luminance" maskUnits="userSpaceOnUse" x="145" y="110" width="62" height="56">
<path d="M206.838 110.28H145.626V165.864H206.838V110.28Z" fill="white"/>
</mask>
<g mask="url(#mask12_212_4255)">
<path opacity="0.37" d="M206.838 110.28H145.626V165.864H206.838V110.28Z" fill="black"/>
</g>
<path d="M206.838 110.28H145.626V165.864H206.838V110.28Z" stroke="#263238" stroke-linecap="round" stroke-linejoin="round"/>
<path d="M189.252 110.28H145.626V165.864H189.252V110.28Z" fill="white" stroke="#263238" stroke-linecap="round" stroke-linejoin="round"/>
<path d="M171.858 110.28H162.486V125.796H171.858V110.28Z" fill="white" stroke="#263238" stroke-linecap="round" stroke-linejoin="round"/>
<path d="M185.124 130.326H174.258V135.87H185.124V130.326Z" fill="white"/>
<path d="M180.136 150.081L168.942 147.31L167.29 153.985L178.485 156.755L180.136 150.081Z" fill="white"/>
<path d="M170.022 221.064H108.81V276.648H170.022V221.064Z" fill="white"/>
<mask id="mask13_212_4255" style="mask-type:luminance" maskUnits="userSpaceOnUse" x="108" y="221" width="63" height="56">
<path d="M170.022 221.064H108.81V276.648H170.022V221.064Z" fill="white"/>
</mask>
<g mask="url(#mask13_212_4255)">
<path opacity="0.37" d="M170.022 221.064H108.81V276.648H170.022V221.064Z" fill="black"/>
</g>
<path d="M170.022 221.064H108.81V276.648H170.022V221.064Z" stroke="#263238" stroke-linecap="round" stroke-linejoin="round"/>
<path d="M152.436 221.064H108.81V276.648H152.436V221.064Z" fill="white" stroke="#263238" stroke-linecap="round" stroke-linejoin="round"/>
<path d="M135.042 221.064H125.67V236.58H135.042V221.064Z" fill="white" stroke="#263238" stroke-linecap="round" stroke-linejoin="round"/>
<path d="M123.918 266.616H113.052V272.16H123.918V266.616Z" fill="white"/>
<path d="M146.738 241.052L135.544 238.282L133.892 244.957L145.087 247.727L146.738 241.052Z" fill="white"/>
<path d="M215.034 221.064H153.822V276.648H215.034V221.064Z" fill="white"/>
<mask id="mask14_212_4255" style="mask-type:luminance" maskUnits="userSpaceOnUse" x="153" y="221" width="63" height="56">
<path d="M215.034 221.064H153.822V276.648H215.034V221.064Z" fill="white"/>
</mask>
<g mask="url(#mask14_212_4255)">
<path opacity="0.37" d="M215.034 221.064H153.822V276.648H215.034V221.064Z" fill="black"/>
</g>
<path d="M215.034 221.064H153.822V276.648H215.034V221.064Z" stroke="#263238" stroke-linecap="round" stroke-linejoin="round"/>
<path d="M197.448 221.064H153.822V276.648H197.448V221.064Z" fill="white" stroke="#263238" stroke-linecap="round" stroke-linejoin="round"/>
<path d="M180.054 221.064H170.682V236.58H180.054V221.064Z" fill="white" stroke="#263238" stroke-linecap="round" stroke-linejoin="round"/>
<path d="M193.32 241.116H182.454V246.66H193.32V241.116Z" fill="white"/>
<path d="M169.128 237.284L157.934 234.513L156.282 241.188L167.476 243.958L169.128 237.284Z" fill="white"/>
<path d="M260.634 221.064H199.422V276.648H260.634V221.064Z" fill="white"/>
<mask id="mask15_212_4255" style="mask-type:luminance" maskUnits="userSpaceOnUse" x="199" y="221" width="62" height="56">
<path d="M260.634 221.064H199.422V276.648H260.634V221.064Z" fill="white"/>
</mask>
<g mask="url(#mask15_212_4255)">
<path opacity="0.37" d="M260.634 221.064H199.422V276.648H260.634V221.064Z" fill="black"/>
</g>
<path d="M260.634 221.064H199.422V276.648H260.634V221.064Z" stroke="#263238" stroke-linecap="round" stroke-linejoin="round"/>
<path d="M243.048 221.064H199.422V276.648H243.048V221.064Z" fill="white" stroke="#263238" stroke-linecap="round" stroke-linejoin="round"/>
<path d="M225.654 221.064H216.282V236.58H225.654V221.064Z" fill="white" stroke="#263238" stroke-linecap="round" stroke-linejoin="round"/>
<path d="M238.92 241.116H228.054V246.66H238.92V241.116Z" fill="white"/>
<path d="M214.725 237.288L203.53 234.518L201.878 241.192L213.073 243.963L214.725 237.288Z" fill="white"/>
<path d="M191.13 165.63H129.918V221.214H191.13V165.63Z" fill="white"/>
<mask id="mask16_212_4255" style="mask-type:luminance" maskUnits="userSpaceOnUse" x="129" y="165" width="63" height="57">
<path d="M191.13 165.63H129.918V221.214H191.13V165.63Z" fill="white"/>
</mask>
<g mask="url(#mask16_212_4255)">
<path opacity="0.37" d="M191.13 165.63H129.918V221.214H191.13V165.63Z" fill="black"/>
</g>
<path d="M191.13 165.63H129.918V221.214H191.13V165.63Z" stroke="#263238" stroke-linecap="round" stroke-linejoin="round"/>
<path d="M173.544 165.63H129.918V221.214H173.544V165.63Z" fill="white" stroke="#263238" stroke-linecap="round" stroke-linejoin="round"/>
<path d="M156.144 165.63H146.772V181.146H156.144V165.63Z" fill="white" stroke="#263238" stroke-linecap="round" stroke-linejoin="round"/>
<path d="M169.416 185.682H158.55V191.226H169.416V185.682Z" fill="white"/>
<path d="M145.219 181.851L134.025 179.081L132.373 185.755L143.567 188.526L145.219 181.851Z" fill="white"/>
<path d="M239.73 165.63H178.518V221.214H239.73V165.63Z" fill="white"/>
<mask id="mask17_212_4255" style="mask-type:luminance" maskUnits="userSpaceOnUse" x="178" y="165" width="62" height="57">
<path d="M239.73 165.63H178.518V221.214H239.73V165.63Z" fill="white"/>
</mask>
<g mask="url(#mask17_212_4255)">
<path opacity="0.37" d="M239.73 165.63H178.518V221.214H239.73V165.63Z" fill="black"/>
</g>
<path d="M239.73 165.63H178.518V221.214H239.73V165.63Z" stroke="#263238" stroke-linecap="round" stroke-linejoin="round"/>
<path d="M222.144 165.63H178.518V221.214H222.144V165.63Z" fill="white" stroke="#263238" stroke-linecap="round" stroke-linejoin="round"/>
<path d="M204.744 165.63H195.372V181.146H204.744V165.63Z" fill="white" stroke="#263238" stroke-linecap="round" stroke-linejoin="round"/>
<path d="M218.016 185.682H207.15V191.226H218.016V185.682Z" fill="white"/>
<path d="M196.516 194.996L185.322 192.226L183.67 198.9L194.864 201.671L196.516 194.996Z" fill="white"/>
<path d="M23.04 276.648H285.84" stroke="#263238" stroke-linecap="round" stroke-linejoin="round"/>
<path d="M69.72 258.732C69.72 258.732 67.2 263.85 65.4 266.742C63.6 269.634 60.258 273.438 60.6 276.786C60.942 280.134 64.428 280.494 68.016 278.586C71.604 276.678 74.832 272.85 75.816 269.976C76.8 267.102 79.884 264.714 79.884 261.486C79.884 258.258 79.644 257.886 78.45 257.538C77.256 257.19 70.914 256.698 69.72 258.732Z" fill="white" stroke="#263238" stroke-linecap="round" stroke-linejoin="round"/>
<path d="M79.884 261.48C79.884 261.006 79.884 260.598 79.884 260.238C79.5523 261.237 79.1513 262.211 78.684 263.154C77.364 265.788 75.45 267.354 74.736 270.57C74.022 273.786 69.474 277.506 65.526 278.46C61.578 279.414 60.726 276.192 60.726 276.192H60.582C60.5674 276.392 60.5674 276.593 60.582 276.792C60.942 280.14 64.41 280.5 67.998 278.592C71.586 276.684 74.814 272.856 75.798 269.982C76.782 267.108 79.884 264.708 79.884 261.48Z" fill="#263238" stroke="#263238" stroke-linecap="round" stroke-linejoin="round"/>
<path d="M70.2002 260.88C70.2002 260.88 71.6402 262.914 76.4222 262.32" stroke="#263238" stroke-linecap="round" stroke-linejoin="round"/>
<path d="M70.0801 262.56C71.5012 263.678 73.3048 264.193 75.1021 263.994" stroke="#263238" stroke-linecap="round" stroke-linejoin="round"/>
<path d="M69.6001 263.994C70.1282 264.566 70.7839 265.005 71.5138 265.275C72.2437 265.545 73.0271 265.639 73.8001 265.548" stroke="#263238" stroke-linecap="round" stroke-linejoin="round"/>
<path d="M69.1201 266.028C69.1201 266.028 69.9601 267.702 73.1881 267.342" stroke="#263238" stroke-linecap="round" stroke-linejoin="round"/>
<path d="M100.332 263.25C102.132 266.083 104.605 268.425 107.532 270.066C112.194 272.58 118.176 274.266 118.65 275.466C118.85 275.902 118.888 276.394 118.757 276.855C118.626 277.316 118.335 277.715 117.936 277.98C117.336 278.334 108.486 278.58 103.824 277.74C101.193 277.178 98.5033 276.936 95.814 277.02C93.66 277.02 88.998 277.62 88.398 274.986C87.798 272.352 89.352 262.788 89.352 262.788C89.352 262.788 96.384 264.828 100.332 263.25Z" fill="white" stroke="#263238" stroke-miterlimit="10"/>
<path d="M117.912 277.986C118.221 277.782 118.466 277.494 118.619 277.157C118.772 276.819 118.826 276.445 118.776 276.078C116.919 276.531 115.033 276.848 113.13 277.026C108.33 277.506 101.172 275.952 95.55 275.712C91.422 275.538 89.166 274.584 88.26 274.098C88.2763 274.399 88.3144 274.698 88.374 274.992C88.974 277.626 93.636 277.026 95.79 277.026C98.4793 276.942 101.169 277.184 103.8 277.746C108.462 278.58 117.312 278.34 117.912 277.986Z" fill="#263238" stroke="#263238" stroke-miterlimit="10"/>
<path d="M102.126 266.028C101.204 266.764 100.467 267.705 99.9722 268.776" stroke="#263238" stroke-miterlimit="10"/>
<path d="M103.56 267.816C103.56 267.816 102.006 269.136 102.006 269.97" stroke="#263238" stroke-miterlimit="10"/>
<path d="M105.114 269.016C104.712 269.694 104.391 270.417 104.16 271.17" stroke="#263238" stroke-miterlimit="10"/>
<path d="M107.508 270.09C107.508 270.09 106.548 270.93 106.548 271.764" stroke="#263238" stroke-miterlimit="10"/>
<path d="M66.5582 136.248C66.5582 136.248 62.7542 154.35 63.0542 164.25C63.3542 174.15 76.8542 198.75 76.8542 198.75C76.8542 198.75 69.6542 216.45 69.3542 224.25C69.0542 232.05 69.6662 257.16 69.6662 257.16C69.6662 257.16 72.6662 258.9 75.3842 258.9C78.1022 258.9 81.3482 257.532 81.3482 257.532L88.2542 230.532L88.5542 263.232C90.5519 264.416 92.8322 265.038 95.1542 265.032C97.5163 265.018 99.8183 264.286 101.754 262.932C101.754 262.932 106.554 228.432 107.154 222.732C107.754 217.032 111.654 199.932 111.954 198.732C112.254 197.532 117.954 178.632 117.954 163.332C117.954 148.032 113.556 138.834 113.556 138.834C113.556 138.834 98.1542 135.432 86.7542 135.132C80.0029 134.946 73.2479 135.319 66.5582 136.248Z" fill="#263238" stroke="#263238" stroke-linecap="round" stroke-linejoin="round"/>
<path d="M90.354 226.05C90.354 226.05 98.154 203.85 98.154 198.45C98.154 193.05 93.054 159.45 93.054 159.45" stroke="#878787" stroke-miterlimit="10"/>
<path d="M95.1541 169.65C95.1541 169.65 99.6541 164.55 101.154 161.55" stroke="#878787" stroke-miterlimit="10"/>
<path d="M112.956 90.2523C112.956 90.2523 119.154 93.8523 122.556 99.2523C125.958 104.652 133.356 127.452 132.954 133.248C132.552 139.044 130.758 140.652 125.556 139.65C120.354 138.648 119.958 132.852 118.758 128.052C117.558 123.252 111.156 92.8503 111.156 92.8503L110.958 90.0483L112.956 90.2523Z" fill="white" stroke="#263238" stroke-linecap="round" stroke-linejoin="round"/>
<path d="M132.954 133.248C133.158 130.296 131.34 122.928 129.054 115.698L116.4 117.45C117.462 122.37 118.374 126.504 118.758 128.034C119.958 132.834 120.354 138.63 125.556 139.632C130.758 140.634 132.558 139.05 132.954 133.248Z" fill="#CFCFCF" stroke="#263238" stroke-linecap="round" stroke-linejoin="round"/>
<path d="M71.5561 88.4523C71.5561 88.4523 66.7561 89.4483 65.5561 97.8483C64.3561 106.248 67.1581 120.048 67.1581 120.048L66.5581 136.248C66.5581 136.248 86.5561 141.45 94.7581 141.45C102.96 141.45 113.556 138.852 113.556 138.852C113.556 138.852 109.158 98.4483 108.354 95.0523C107.55 91.6563 103.956 88.2483 100.956 86.0523C97.9561 83.8563 90.3541 84.0483 85.9561 85.2483C81.5581 86.4483 75.3541 88.8483 75.3541 88.8483L71.5561 88.4523Z" fill="white" stroke="#263238" stroke-linecap="round" stroke-linejoin="round"/>
<path d="M85.9561 82.8483C85.9561 82.8483 90.1561 99.8523 90.5581 111.45C90.9601 123.048 88.7581 159.048 88.7581 159.048C88.7581 159.048 79.3561 159.45 72.5581 158.25C65.7601 157.05 60.9541 156.45 60.9541 156.45L66.9541 119.052C66.9541 119.052 75.1561 119.652 76.9561 113.85C78.7561 108.048 76.3561 96.4503 74.1541 92.8503C71.9521 89.2503 71.5561 88.4523 71.5561 88.4523L85.9561 82.8483Z" fill="white" stroke="#263238" stroke-linecap="round" stroke-linejoin="round"/>
<path d="M104.154 98.6523C104.154 98.6523 108.558 115.452 108.156 132.252C107.754 149.052 107.556 158.052 107.556 158.052C107.556 158.052 117.156 157.452 122.556 155.25C122.556 155.25 119.556 116.052 116.754 104.448C113.952 92.8443 112.956 90.2523 112.956 90.2523L101.754 85.6503L104.154 98.6523Z" fill="white" stroke="#263238" stroke-linecap="round" stroke-linejoin="round"/>
<path d="M90.2641 79.5843C90.2641 79.5843 86.0641 80.3643 84.9601 82.5483C83.8561 84.7323 89.3281 102.672 89.3281 102.672L97.2841 96.1203L107.112 101.736C107.112 101.736 105.24 88.1643 101.184 83.4843C97.1281 78.8043 90.2641 79.5843 90.2641 79.5843Z" fill="white" stroke="#263238" stroke-linecap="round" stroke-linejoin="round"/>
<path d="M88.5481 68.2023C88.5481 68.2023 88.3921 83.9523 90.1081 88.0023C91.8241 92.0523 96.3481 97.9863 98.0641 97.0503C99.7801 96.1143 100.248 84.7263 100.56 83.9463C100.872 83.1663 102.12 76.7463 102.12 76.7463C102.12 76.7463 90.8881 73.6503 88.5481 68.2023Z" fill="#CFCFCF" stroke="#263238" stroke-linecap="round" stroke-linejoin="round"/>
<path d="M88.548 68.2023C88.548 68.2023 88.488 74.5263 88.878 80.2023C90.6682 82.3223 93.1836 83.6998 95.934 84.0663C97.465 84.2981 99.0236 84.2778 100.548 84.0063C100.545 83.9924 100.545 83.9782 100.548 83.9643C100.86 83.1843 102.108 76.7643 102.108 76.7643C102.108 76.7643 90.888 73.6503 88.548 68.2023Z" fill="#263238" stroke="#263238" stroke-linecap="round" stroke-linejoin="round"/>
<path d="M106.098 122.394L104.898 123.126L97.9562 111.78C97.8608 111.622 97.8319 111.432 97.8757 111.252C97.9195 111.072 98.0325 110.917 98.1902 110.82C98.2681 110.772 98.3548 110.74 98.4454 110.725C98.5359 110.71 98.6284 110.714 98.7176 110.735C98.8068 110.756 98.8909 110.795 98.9652 110.848C99.0394 110.902 99.1023 110.97 99.1502 111.048L106.098 122.394Z" fill="white" stroke="#263238" stroke-linecap="round" stroke-linejoin="round"/>
<path d="M71.5561 88.4523C71.5561 88.4523 66.9541 88.8483 64.1581 94.2483C61.3621 99.6483 56.9581 125.052 56.1541 132.45C55.3501 139.848 59.7541 139.248 60.3541 139.248C60.9541 139.248 92.7541 128.652 92.7541 128.652L103.554 127.452C103.554 127.452 102.354 128.448 103.356 128.448C104.358 128.448 106.356 126.45 107.154 125.25C107.952 124.05 104.754 117.45 103.554 116.652C102.354 115.854 91.5541 123.852 91.5541 123.852L70.5541 125.25L75.9541 106.848" fill="white"/>
<path d="M71.5561 88.4523C71.5561 88.4523 66.9541 88.8483 64.1581 94.2483C61.3621 99.6483 56.9581 125.052 56.1541 132.45C55.3501 139.848 59.7541 139.248 60.3541 139.248C60.9541 139.248 92.7541 128.652 92.7541 128.652L103.554 127.452C103.554 127.452 102.354 128.448 103.356 128.448C104.358 128.448 106.356 126.45 107.154 125.25C107.952 124.05 104.754 117.45 103.554 116.652C102.354 115.854 91.5541 123.852 91.5541 123.852L70.5541 125.25L75.9541 106.848" stroke="#263238" stroke-linecap="round" stroke-linejoin="round"/>
<path d="M103.554 116.652C102.354 115.848 91.5541 123.852 91.5541 123.852L70.5541 125.25L71.8861 120.714L58.4521 117.684C57.3421 123.846 56.4721 129.54 56.1541 132.45C55.3561 139.848 59.7541 139.248 60.3541 139.248C60.9541 139.248 92.7541 128.652 92.7541 128.652L103.554 127.452C103.554 127.452 102.354 128.448 103.356 128.448C104.358 128.448 106.356 126.45 107.154 125.25C107.952 124.05 104.754 117.45 103.554 116.652Z" fill="#CFCFCF" stroke="#263238" stroke-linecap="round" stroke-linejoin="round"/>
<path d="M103.554 116.652C102.354 115.848 91.5541 123.852 91.5541 123.852L88.4941 124.056C88.4824 125.993 88.9591 127.902 89.8801 129.606L92.7541 128.652L103.554 127.452C103.554 127.452 102.354 128.448 103.356 128.448C104.358 128.448 106.356 126.45 107.154 125.25C107.952 124.05 104.754 117.45 103.554 116.652Z" fill="#666666" stroke="#263238" stroke-linecap="round" stroke-linejoin="round"/>
<path d="M114.156 107.25L93.7561 135.852L120.558 134.85L139.956 108.45L114.156 107.25Z" fill="#263238" stroke="#263238" stroke-linecap="round" stroke-linejoin="round"/>
<path d="M123.162 106.41L121.596 109.014L133.326 109.278L134.892 106.668L123.162 106.41Z" fill="#263238" stroke="#263238" stroke-linecap="round" stroke-linejoin="round"/>
<path d="M131.088 123.48C130.167 123.817 129.208 124.039 128.232 124.14C127.032 124.194 125.928 124.8 125.928 125.406C125.928 126.012 128.07 126.12 129.606 126.12C131.142 126.12 132.348 125.79 132.606 124.8C132.864 123.81 132.516 122.934 131.088 123.48Z" fill="#666666" stroke="#263238" stroke-linecap="round" stroke-linejoin="round"/>
<path d="M132.468 120.798C131.307 121.224 130.098 121.506 128.868 121.638C127.338 121.704 125.946 122.472 125.946 123.234C125.946 123.996 128.658 124.14 130.608 124.14C132.558 124.14 134.088 123.726 134.436 122.472C134.784 121.218 134.28 120.102 132.468 120.798Z" fill="#666666" stroke="#263238" stroke-linecap="round" stroke-linejoin="round"/>
<path d="M133.578 118.506C132.417 118.932 131.208 119.214 129.978 119.346C128.442 119.412 127.05 120.18 127.05 120.942C127.05 121.704 129.768 121.848 131.718 121.848C133.668 121.848 135.198 121.434 135.546 120.18C135.894 118.926 135.39 117.81 133.578 118.506Z" fill="#666666" stroke="#263238" stroke-linecap="round" stroke-linejoin="round"/>
<path d="M134.328 115.914C133.166 116.337 131.957 116.617 130.728 116.748C129.198 116.814 127.806 117.582 127.806 118.35C127.806 119.118 130.518 119.256 132.468 119.256C134.418 119.256 135.948 118.836 136.296 117.582C136.644 116.328 136.14 115.218 134.328 115.914Z" fill="#666666" stroke="#263238" stroke-linecap="round" stroke-linejoin="round"/>
<path d="M69.0481 251.442C69.0481 251.442 68.9221 257.658 69.1681 258.642C69.4141 259.626 73.7701 260.874 76.5001 260.874C79.2301 260.874 80.9761 260.274 81.4741 259.512C81.9721 258.75 82.8361 253.668 82.8361 253.668C82.8361 253.668 73.1461 255.672 69.0481 251.442Z" fill="#666666" stroke="#263238" stroke-linecap="round" stroke-linejoin="round"/>
<path d="M82.8001 63.2103C80.855 62.5253 78.7634 62.3664 76.7372 62.75C74.711 63.1335 72.8222 64.0458 71.2621 65.3943C65.8021 70.0743 70.6621 78.4983 76.4101 79.4343C82.1581 80.3703 85.9201 77.7183 86.8561 73.5063C87.7921 69.2943 86.2441 63.0543 82.8001 63.2103Z" fill="#263238" stroke="#263238" stroke-linecap="round" stroke-linejoin="round"/>
<path d="M110.4 61.8063C110.4 61.8063 109.62 69.6063 108.06 75.0663C106.5 80.5263 102.444 82.5543 96.6602 81.7743C90.8762 80.9943 87.6122 76.3143 85.7402 70.8543C83.8682 65.3943 83.7122 57.9063 83.7122 57.9063L110.4 61.8063Z" fill="#CFCFCF" stroke="#263238" stroke-linecap="round" stroke-linejoin="round"/>
<path d="M84.5281 61.6503C84.5281 61.6503 86.4 63.3663 90.6 60.4023C94.8 57.4383 92.784 56.0343 92.784 56.0343L82.8 56.6343L84.5281 61.6503Z" fill="#263238" stroke="#263238" stroke-linecap="round" stroke-linejoin="round"/>
<path d="M104.184 63.6783C104.184 63.6783 103.404 66.0183 103.872 66.7983C104.34 67.5783 105.588 68.6703 104.184 69.9183C103.93 70.1667 103.621 70.3516 103.281 70.458C102.942 70.5645 102.583 70.5895 102.232 70.5311C101.881 70.4726 101.55 70.3324 101.263 70.1217C100.977 69.911 100.744 69.6357 100.584 69.3183" stroke="#263238" stroke-linecap="round" stroke-linejoin="round"/>
<path d="M95.4841 70.6503C95.4841 70.6503 97.8841 73.7643 102.432 72.3303" stroke="#263238" stroke-linecap="round" stroke-linejoin="round"/>
<path d="M98.8801 64.6143C98.8801 65.4783 98.5321 66.1743 98.1001 66.1743C97.6681 66.1743 97.3201 65.4783 97.3201 64.6143C97.3201 63.7503 97.6681 63.0543 98.1001 63.0543C98.5321 63.0543 98.8801 63.7503 98.8801 64.6143Z" fill="#263238"/>
<path d="M107.46 65.8503C107.46 66.7143 107.112 67.4103 106.68 67.4103C106.248 67.4103 105.9 66.7143 105.9 65.8503C105.9 64.9863 106.248 64.2903 106.68 64.2903C107.112 64.2903 107.46 64.9983 107.46 65.8503Z" fill="#263238"/>
<path d="M95.604 61.1823C95.604 61.1823 97.788 58.6863 100.596 61.1823" stroke="#263238" stroke-linecap="round" stroke-linejoin="round"/>
<path d="M105.6 62.4303C106.081 62.0757 106.669 61.8976 107.266 61.926C107.863 61.9545 108.431 62.1876 108.876 62.5863" stroke="#263238" stroke-linecap="round" stroke-linejoin="round"/>
<path d="M82.2002 58.5303L111.216 61.6503C111.216 61.6503 110.904 46.9863 110.748 44.4963C110.592 42.0063 99.0482 38.5683 94.5482 38.8803C90.0482 39.1923 84.4082 41.8443 83.4722 43.0803C82.5362 44.3163 82.2002 58.5303 82.2002 58.5303Z" fill="white" stroke="#263238" stroke-linecap="round" stroke-linejoin="round"/>
<path d="M94.6682 60.0903L120.402 63.5223C120.402 63.5223 113.544 57.5943 108.084 57.1263C102.624 56.6583 94.6682 60.0903 94.6682 60.0903Z" fill="white" stroke="#263238" stroke-linecap="round" stroke-linejoin="round"/>
<path d="M85.62 62.7423C85.62 62.7423 85.02 57.9063 82.344 57.9063C79.668 57.9063 80.94 61.8063 81.252 64.3023C81.564 66.7983 84.528 67.4223 85.62 66.4863" fill="#CFCFCF"/>
<path d="M85.62 62.7423C85.62 62.7423 85.02 57.9063 82.344 57.9063C79.668 57.9063 80.94 61.8063 81.252 64.3023C81.564 66.7983 84.528 67.4223 85.62 66.4863" stroke="#263238" stroke-linecap="round" stroke-linejoin="round"/>
<path d="M88.3081 257.904L88.6801 263.748C88.6801 263.748 90.3301 264.984 95.1541 265.05C99.9781 265.116 101.754 262.95 101.754 262.95L102.72 256.65C102.72 256.65 93.7741 260.886 88.3081 257.904Z" fill="#666666" stroke="#263238" stroke-linecap="round" stroke-linejoin="round"/>
</svg>
