<svg width="1281" height="81" viewBox="0 0 1281 81" fill="none" xmlns="http://www.w3.org/2000/svg">
<path d="M1281.03 80.9997H0.475342C0.475342 54.2727 0.475342 27.5467 0.475342 0.819732C1.90846 0.812732 3.34158 0.798736 4.7747 0.798736C428.573 0.798736 852.369 0.798736 1276.17 0.798736C1277.13 0.798736 1278.09 0.79575 1279.05 0.80075C1279.65 0.80375 1280.24 0.821747 1280.98 0.834747C1280.98 0.966747 1280.98 1.08073 1280.98 1.19473C1280.98 27.6997 1280.98 54.2048 1280.98 80.7097C1280.98 80.8067 1281.01 80.9027 1281.03 80.9997Z" fill="#5D4037"/>
<path d="M1281.03 80.9996C1281.01 80.9026 1280.98 80.8056 1280.98 80.7086C1280.98 54.2036 1280.98 27.6986 1280.98 1.19361C1280.98 1.07961 1280.98 0.966623 1280.98 0.833623C1280.24 0.819623 1279.65 0.802626 1279.05 0.799626C1278.09 0.793626 1277.13 0.797612 1276.17 0.797612C852.369 0.797612 428.573 0.797612 4.7747 0.797612C3.34158 0.797612 1.90846 0.811608 0.475342 0.818608C0.555404 0.800608 0.627461 0.768644 0.71653 0.767644C1.35403 0.763644 1.99553 0.76563 2.63603 0.76563H1281.51C1281.51 27.4306 1281.51 54.0956 1281.48 80.7606C1281.48 80.8376 1282.04 80.9407 1281.03 80.9987L1281.03 80.9996Z" fill="#5D4037"/>
</svg>
