<svg width="1288" height="430" viewBox="0 0 1288 430" fill="none" xmlns="http://www.w3.org/2000/svg">
<path opacity="0.2" d="M64.1608 0.000123538L63.2253 425.185L64.2886 425.187L65.2241 0.00246089L64.1608 0.000123538Z" fill="white"/>
<path opacity="0.2" d="M85.4297 0.0473953L84.4943 425.232L85.5576 425.235L86.493 0.0497327L85.4297 0.0473953Z" fill="white"/>
<path opacity="0.5" d="M106.697 0.0936599L105.761 425.279L106.825 425.281L107.761 0.0959995L106.697 0.0936599Z" fill="white"/>
<path opacity="0.2" d="M127.965 0.139955L127.03 425.325L128.093 425.327L129.029 0.142292L127.965 0.139955Z" fill="white"/>
<path opacity="0.2" d="M149.233 0.185976L148.298 425.371L149.361 425.373L150.297 0.188313L149.233 0.185976Z" fill="white"/>
<path opacity="0.2" d="M170.502 0.233461L169.567 425.418L170.63 425.421L171.566 0.235798L170.502 0.233461Z" fill="white"/>
<path opacity="0.2" d="M191.771 0.279787L190.836 425.465L191.899 425.467L192.834 0.282124L191.771 0.279787Z" fill="white"/>
<path opacity="0.5" d="M213.039 0.326082L212.104 425.511L213.168 425.513L214.103 0.328421L213.039 0.326082Z" fill="white"/>
<path opacity="0.2" d="M234.308 0.3743L233.372 425.559L234.436 425.562L235.371 0.376637L234.308 0.3743Z" fill="white"/>
<path opacity="0.2" d="M255.576 0.419344L254.64 425.604L255.705 425.607L256.64 0.421683L255.576 0.419344Z" fill="white"/>
<path opacity="0.2" d="M276.844 0.466859L275.908 425.652L276.973 425.654L277.908 0.469199L276.844 0.466859Z" fill="white"/>
<path opacity="0.2" d="M298.112 0.513155L297.177 425.698L298.24 425.701L299.176 0.515492L298.112 0.513155Z" fill="white"/>
<path opacity="0.5" d="M319.381 0.560487L318.446 425.745L319.509 425.748L320.445 0.562825L319.381 0.560487Z" fill="white"/>
<path opacity="0.2" d="M340.648 0.606721L339.713 425.792L340.776 425.794L341.712 0.609059L340.648 0.606721Z" fill="white"/>
<path opacity="0.2" d="M361.916 0.653993L360.981 425.839L362.045 425.841L362.98 0.656333L361.916 0.653993Z" fill="white"/>
<path opacity="0.2" d="M383.185 0.700288L382.25 425.885L383.314 425.888L384.249 0.702628L383.185 0.700288Z" fill="white"/>
<path opacity="0.2" d="M404.454 0.746522L403.519 425.932L404.582 425.934L405.517 0.74886L404.454 0.746522Z" fill="white"/>
<path opacity="0.5" d="M425.192 1.32324L424.259 425.447L425.319 425.45L426.252 1.32557L425.192 1.32324Z" fill="white"/>
<path opacity="0.2" d="M0.795429 41.8463L0.793091 42.9092L426.157 43.8442L426.16 42.7814L0.795429 41.8463Z" fill="white"/>
<path opacity="0.2" d="M0.749165 63.1063L0.746826 64.1691L426.111 65.1042L426.113 64.0413L0.749165 63.1063Z" fill="white"/>
<path opacity="0.2" d="M0.701801 84.3652L0.699463 85.428L426.064 86.3631L426.066 85.3002L0.701801 84.3652Z" fill="white"/>
<path opacity="0.5" d="M0.655539 105.624L0.653198 106.688L426.017 107.623L426.02 106.559L0.655539 105.624Z" fill="white"/>
<path opacity="0.2" d="M0.608173 126.884L0.605835 127.947L425.97 128.882L425.972 127.819L0.608173 126.884Z" fill="white"/>
<path opacity="0.2" d="M0.561909 148.144L0.55957 149.207L425.924 150.142L425.926 149.079L0.561909 148.144Z" fill="white"/>
<path opacity="0.2" d="M0.514667 169.404L0.512329 170.467L425.876 171.402L425.879 170.339L0.514667 169.404Z" fill="white"/>
<path opacity="0.2" d="M0.468281 190.662L0.465942 191.725L425.83 192.66L425.832 191.597L0.468281 190.662Z" fill="white"/>
<path opacity="0.5" d="M0.422018 211.921L0.419678 212.985L425.784 213.92L425.786 212.856L0.422018 211.921Z" fill="white"/>
<path opacity="0.2" d="M0.375751 233.181L0.373413 234.244L425.737 235.179L425.74 234.116L0.375751 233.181Z" fill="white"/>
<path opacity="0.2" d="M0.32839 254.44L0.32605 255.503L425.69 256.439L425.692 255.375L0.32839 254.44Z" fill="white"/>
<path opacity="0.2" d="M0.282126 275.699L0.279785 276.762L425.644 277.697L425.646 276.634L0.282126 275.699Z" fill="white"/>
<path opacity="0.2" d="M0.235859 296.958L0.233521 298.021L425.598 298.956L425.6 297.894L0.235859 296.958Z" fill="white"/>
<path opacity="0.5" d="M0.188496 318.218L0.186157 319.281L425.55 320.216L425.553 319.153L0.188496 318.218Z" fill="white"/>
<path opacity="0.2" d="M0.141983 339.477L0.139648 340.54L425.504 341.477L425.506 340.414L0.141983 339.477Z" fill="white"/>
<path opacity="0.2" d="M0.0958427 360.736L0.0935059 361.8L425.458 362.737L425.46 361.673L0.0958427 360.736Z" fill="white"/>
<path opacity="0.2" d="M0.0494524 381.996L0.0471191 383.06L425.411 383.998L425.414 382.934L0.0494524 381.996Z" fill="white"/>
<path opacity="0.2" d="M0.00233105 403.256L0 404.319L425.364 405.257L425.366 404.194L0.00233105 403.256Z" fill="white"/>
<path opacity="0.5" d="M0.487683 423.988L0.485352 425.048L424.788 425.98L424.79 424.921L0.487683 423.988Z" fill="white"/>
<path d="M424.966 103.642L424.95 111.064L426.01 111.066L426.026 103.644L424.966 103.642Z" fill="white"/>
<path d="M421.777 106.816L421.775 107.875L429.2 107.892L429.202 106.832L421.777 106.816Z" fill="white"/>
<path d="M424.733 209.674L424.717 217.096L425.777 217.099L425.794 209.677L424.733 209.674Z" fill="white"/>
<path d="M421.545 212.849L421.542 213.909L428.967 213.925L428.97 212.865L421.545 212.849Z" fill="white"/>
<path d="M424.501 315.706L424.485 323.128L425.545 323.13L425.561 315.708L424.501 315.706Z" fill="white"/>
<path d="M421.311 318.881L421.309 319.94L428.734 319.957L428.736 318.897L421.311 318.881Z" fill="white"/>
<path d="M106.737 102.944L106.721 110.366L107.781 110.368L107.797 102.946L106.737 102.944Z" fill="white"/>
<path d="M103.548 106.118L103.546 107.178L110.971 107.195L110.973 106.135L103.548 106.118Z" fill="white"/>
<path d="M106.504 208.976L106.488 216.398L107.548 216.4L107.565 208.978L106.504 208.976Z" fill="white"/>
<path d="M103.316 212.151L103.313 213.211L110.738 213.227L110.741 212.167L103.316 212.151Z" fill="white"/>
<path d="M106.272 315.008L106.256 322.43L107.316 322.432L107.332 315.01L106.272 315.008Z" fill="white"/>
<path d="M103.082 318.182L103.08 319.242L110.505 319.258L110.507 318.198L103.082 318.182Z" fill="white"/>
<path d="M106.038 421.039L106.022 428.461L107.082 428.463L107.099 421.041L106.038 421.039Z" fill="white"/>
<path d="M102.849 424.213L102.847 425.273L110.272 425.29L110.275 424.23L102.849 424.213Z" fill="white"/>
<path d="M212.814 103.177L212.798 110.599L213.858 110.602L213.874 103.18L212.814 103.177Z" fill="white"/>
<path d="M209.625 106.351L209.623 107.411L217.048 107.427L217.05 106.367L209.625 106.351Z" fill="white"/>
<path d="M212.58 209.209L212.564 216.631L213.624 216.633L213.641 209.211L212.58 209.209Z" fill="white"/>
<path d="M209.391 212.382L209.389 213.442L216.814 213.458L216.817 212.399L209.391 212.382Z" fill="white"/>
<path d="M212.348 315.241L212.332 322.663L213.392 322.665L213.408 315.243L212.348 315.241Z" fill="white"/>
<path d="M209.158 318.414L209.156 319.474L216.581 319.491L216.583 318.431L209.158 318.414Z" fill="white"/>
<path d="M212.115 421.272L212.099 428.694L213.159 428.697L213.176 421.275L212.115 421.272Z" fill="white"/>
<path d="M208.927 424.446L208.924 425.506L216.349 425.522L216.352 424.462L208.927 424.446Z" fill="white"/>
<path d="M318.89 103.41L318.874 110.832L319.934 110.834L319.95 103.412L318.89 103.41Z" fill="white"/>
<path d="M315.701 106.584L315.699 107.644L323.124 107.66L323.126 106.601L315.701 106.584Z" fill="white"/>
<path d="M318.656 209.441L318.64 216.863L319.7 216.865L319.717 209.443L318.656 209.441Z" fill="white"/>
<path d="M315.468 212.615L315.465 213.675L322.89 213.692L322.893 212.632L315.468 212.615Z" fill="white"/>
<path d="M318.425 315.473L318.409 322.895L319.469 322.897L319.485 315.475L318.425 315.473Z" fill="white"/>
<path d="M315.235 318.647L315.233 319.707L322.658 319.723L322.66 318.663L315.235 318.647Z" fill="white"/>
<path d="M318.191 421.505L318.175 428.927L319.235 428.929L319.252 421.507L318.191 421.505Z" fill="white"/>
<path d="M315.003 424.679L315 425.739L322.425 425.755L322.428 424.696L315.003 424.679Z" fill="white"/>
<path d="M424.267 421.737L424.251 429.159L425.311 429.161L425.328 421.739L424.267 421.737Z" fill="white"/>
<path d="M421.078 424.912L421.076 425.971L428.501 425.988L428.504 424.928L421.078 424.912Z" fill="white"/>
<path d="M53.8081 52.9928L53.8058 54.0526L54.8661 54.0549L54.8684 52.9951L53.8081 52.9928Z" fill="white"/>
<path d="M159.884 53.2259L159.882 54.2858L160.942 54.2881L160.944 53.2282L159.884 53.2259Z" fill="white"/>
<path d="M265.961 53.4593L265.959 54.5192L267.019 54.5215L267.021 53.4617L265.961 53.4593Z" fill="white"/>
<path d="M372.037 53.6907L372.035 54.7505L373.095 54.7529L373.097 53.693L372.037 53.6907Z" fill="white"/>
<path d="M53.5757 159.025L53.5734 160.085L54.6337 160.087L54.636 159.027L53.5757 159.025Z" fill="white"/>
<path d="M159.653 159.257L159.65 160.317L160.711 160.319L160.713 159.26L159.653 159.257Z" fill="white"/>
<path d="M265.729 159.491L265.726 160.551L266.787 160.553L266.789 159.493L265.729 159.491Z" fill="white"/>
<path d="M371.805 159.723L371.802 160.783L372.863 160.785L372.865 159.725L371.805 159.723Z" fill="white"/>
<path d="M53.3432 265.056L53.3408 266.116L54.4011 266.118L54.4035 265.059L53.3432 265.056Z" fill="white"/>
<path d="M159.419 265.29L159.417 266.349L160.477 266.352L160.48 265.292L159.419 265.29Z" fill="white"/>
<path d="M265.495 265.522L265.493 266.582L266.553 266.584L266.556 265.524L265.495 265.522Z" fill="white"/>
<path d="M371.572 265.754L371.57 266.814L372.63 266.817L372.632 265.757L371.572 265.754Z" fill="white"/>
<path d="M53.1096 371.089L53.1073 372.148L54.1676 372.151L54.1699 371.091L53.1096 371.089Z" fill="white"/>
<path d="M159.186 371.321L159.183 372.381L160.244 372.383L160.246 371.323L159.186 371.321Z" fill="white"/>
<path d="M265.263 371.554L265.26 372.614L266.321 372.617L266.323 371.557L265.263 371.554Z" fill="white"/>
<path d="M371.339 371.786L371.336 372.846L372.397 372.848L372.399 371.788L371.339 371.786Z" fill="white"/>
<path opacity="0.2" d="M493.363 0.000123538L492.427 425.185L493.491 425.187L494.426 0.00246089L493.363 0.000123538Z" fill="white"/>
<path opacity="0.2" d="M514.632 0.0473953L513.696 425.232L514.76 425.235L515.695 0.0497327L514.632 0.0473953Z" fill="white"/>
<path opacity="0.5" d="M535.899 0.0936599L534.963 425.279L536.028 425.281L536.963 0.0959995L535.899 0.0936599Z" fill="white"/>
<path opacity="0.2" d="M557.168 0.139955L556.232 425.325L557.296 425.327L558.231 0.142292L557.168 0.139955Z" fill="white"/>
<path opacity="0.2" d="M578.435 0.185976L577.5 425.371L578.563 425.373L579.499 0.188313L578.435 0.185976Z" fill="white"/>
<path opacity="0.2" d="M599.704 0.233461L598.769 425.418L599.832 425.421L600.768 0.235798L599.704 0.233461Z" fill="white"/>
<path opacity="0.2" d="M620.973 0.279787L620.038 425.465L621.101 425.467L622.037 0.282124L620.973 0.279787Z" fill="white"/>
<path opacity="0.5" d="M642.241 0.326082L641.306 425.511L642.37 425.513L643.305 0.328421L642.241 0.326082Z" fill="white"/>
<path opacity="0.2" d="M663.51 0.3743L662.575 425.559L663.638 425.562L664.573 0.376637L663.51 0.3743Z" fill="white"/>
<path opacity="0.2" d="M684.778 0.419344L683.842 425.604L684.907 425.607L685.842 0.421683L684.778 0.419344Z" fill="white"/>
<path opacity="0.2" d="M706.046 0.466859L705.11 425.652L706.175 425.654L707.11 0.469199L706.046 0.466859Z" fill="white"/>
<path opacity="0.2" d="M727.315 0.513155L726.379 425.698L727.442 425.701L728.378 0.515492L727.315 0.513155Z" fill="white"/>
<path opacity="0.5" d="M748.583 0.560487L747.648 425.745L748.711 425.748L749.647 0.562825L748.583 0.560487Z" fill="white"/>
<path opacity="0.2" d="M769.85 0.606721L768.915 425.792L769.978 425.794L770.914 0.609059L769.85 0.606721Z" fill="white"/>
<path opacity="0.2" d="M791.118 0.653993L790.183 425.839L791.247 425.841L792.183 0.656333L791.118 0.653993Z" fill="white"/>
<path opacity="0.2" d="M812.387 0.700288L811.452 425.885L812.516 425.888L813.451 0.702628L812.387 0.700288Z" fill="white"/>
<path opacity="0.2" d="M833.656 0.746522L832.721 425.932L833.784 425.934L834.719 0.74886L833.656 0.746522Z" fill="white"/>
<path opacity="0.5" d="M854.394 1.32324L853.461 425.447L854.521 425.45L855.454 1.32557L854.394 1.32324Z" fill="white"/>
<path opacity="0.2" d="M429.998 41.8463L429.995 42.9092L855.359 43.8442L855.362 42.7814L429.998 41.8463Z" fill="white"/>
<path opacity="0.2" d="M429.951 63.1063L429.949 64.1691L855.313 65.1042L855.315 64.0413L429.951 63.1063Z" fill="white"/>
<path opacity="0.2" d="M429.904 84.3652L429.902 85.428L855.266 86.3631L855.268 85.3002L429.904 84.3652Z" fill="white"/>
<path opacity="0.5" d="M429.858 105.624L429.855 106.688L855.219 107.623L855.222 106.559L429.858 105.624Z" fill="white"/>
<path opacity="0.2" d="M429.81 126.884L429.808 127.947L855.172 128.882L855.174 127.819L429.81 126.884Z" fill="white"/>
<path opacity="0.2" d="M429.764 148.144L429.762 149.207L855.126 150.142L855.128 149.079L429.764 148.144Z" fill="white"/>
<path opacity="0.2" d="M429.717 169.404L429.714 170.467L855.079 171.402L855.081 170.339L429.717 169.404Z" fill="white"/>
<path opacity="0.2" d="M429.67 190.662L429.668 191.725L855.032 192.66L855.035 191.597L429.67 190.662Z" fill="white"/>
<path opacity="0.5" d="M429.624 211.921L429.622 212.985L854.986 213.92L854.988 212.856L429.624 211.921Z" fill="white"/>
<path opacity="0.2" d="M429.578 233.181L429.576 234.244L854.94 235.179L854.942 234.116L429.578 233.181Z" fill="white"/>
<path opacity="0.2" d="M429.531 254.44L429.528 255.503L854.892 256.439L854.895 255.375L429.531 254.44Z" fill="white"/>
<path opacity="0.2" d="M429.484 275.699L429.482 276.762L854.846 277.697L854.848 276.634L429.484 275.699Z" fill="white"/>
<path opacity="0.2" d="M429.438 296.958L429.436 298.021L854.8 298.956L854.802 297.894L429.438 296.958Z" fill="white"/>
<path opacity="0.5" d="M429.391 318.218L429.388 319.281L854.752 320.216L854.755 319.153L429.391 318.218Z" fill="white"/>
<path opacity="0.2" d="M429.344 339.477L429.342 340.54L854.706 341.477L854.708 340.414L429.344 339.477Z" fill="white"/>
<path opacity="0.2" d="M429.298 360.736L429.296 361.8L854.66 362.737L854.662 361.673L429.298 360.736Z" fill="white"/>
<path opacity="0.2" d="M429.252 381.996L429.249 383.06L854.613 383.998L854.616 382.934L429.252 381.996Z" fill="white"/>
<path opacity="0.2" d="M429.204 403.256L429.202 404.319L854.566 405.257L854.569 404.194L429.204 403.256Z" fill="white"/>
<path opacity="0.5" d="M429.69 423.988L429.688 425.048L853.99 425.98L853.993 424.921L429.69 423.988Z" fill="white"/>
<path d="M854.168 103.642L854.152 111.064L855.212 111.066L855.228 103.644L854.168 103.642Z" fill="white"/>
<path d="M850.979 106.816L850.977 107.875L858.402 107.892L858.404 106.832L850.979 106.816Z" fill="white"/>
<path d="M853.936 209.674L853.919 217.096L854.979 217.099L854.996 209.677L853.936 209.674Z" fill="white"/>
<path d="M850.747 212.849L850.744 213.909L858.17 213.925L858.172 212.865L850.747 212.849Z" fill="white"/>
<path d="M853.703 315.706L853.687 323.128L854.747 323.13L854.763 315.708L853.703 315.706Z" fill="white"/>
<path d="M850.513 318.881L850.511 319.94L857.936 319.957L857.938 318.897L850.513 318.881Z" fill="white"/>
<path d="M535.939 102.944L535.923 110.366L536.983 110.368L536.999 102.946L535.939 102.944Z" fill="white"/>
<path d="M532.75 106.118L532.748 107.178L540.173 107.195L540.175 106.135L532.75 106.118Z" fill="white"/>
<path d="M535.707 208.976L535.69 216.398L536.751 216.4L536.767 208.978L535.707 208.976Z" fill="white"/>
<path d="M532.518 212.151L532.515 213.211L539.941 213.227L539.943 212.167L532.518 212.151Z" fill="white"/>
<path d="M535.474 315.008L535.458 322.43L536.518 322.432L536.534 315.01L535.474 315.008Z" fill="white"/>
<path d="M532.284 318.182L532.282 319.242L539.707 319.258L539.709 318.198L532.284 318.182Z" fill="white"/>
<path d="M535.241 421.039L535.224 428.461L536.285 428.463L536.301 421.041L535.241 421.039Z" fill="white"/>
<path d="M532.052 424.213L532.049 425.273L539.474 425.29L539.477 424.23L532.052 424.213Z" fill="white"/>
<path d="M642.016 103.177L642 110.599L643.06 110.602L643.076 103.18L642.016 103.177Z" fill="white"/>
<path d="M638.827 106.351L638.825 107.411L646.25 107.427L646.252 106.367L638.827 106.351Z" fill="white"/>
<path d="M641.783 209.209L641.766 216.631L642.827 216.633L642.843 209.211L641.783 209.209Z" fill="white"/>
<path d="M638.594 212.382L638.591 213.442L646.016 213.458L646.019 212.399L638.594 212.382Z" fill="white"/>
<path d="M641.55 315.241L641.534 322.663L642.594 322.665L642.61 315.243L641.55 315.241Z" fill="white"/>
<path d="M638.36 318.414L638.358 319.474L645.783 319.491L645.785 318.431L638.36 318.414Z" fill="white"/>
<path d="M641.318 421.272L641.301 428.694L642.362 428.697L642.378 421.275L641.318 421.272Z" fill="white"/>
<path d="M638.129 424.446L638.126 425.506L645.551 425.522L645.554 424.462L638.129 424.446Z" fill="white"/>
<path d="M748.092 103.41L748.076 110.832L749.136 110.834L749.152 103.412L748.092 103.41Z" fill="white"/>
<path d="M744.903 106.584L744.901 107.644L752.326 107.66L752.328 106.601L744.903 106.584Z" fill="white"/>
<path d="M747.859 209.441L747.842 216.863L748.903 216.865L748.919 209.443L747.859 209.441Z" fill="white"/>
<path d="M744.67 212.615L744.667 213.675L752.092 213.692L752.095 212.632L744.67 212.615Z" fill="white"/>
<path d="M747.627 315.473L747.611 322.895L748.671 322.897L748.687 315.475L747.627 315.473Z" fill="white"/>
<path d="M744.437 318.647L744.435 319.707L751.86 319.723L751.862 318.663L744.437 318.647Z" fill="white"/>
<path d="M747.394 421.505L747.377 428.927L748.438 428.929L748.454 421.507L747.394 421.505Z" fill="white"/>
<path d="M744.205 424.679L744.202 425.739L751.628 425.755L751.63 424.696L744.205 424.679Z" fill="white"/>
<path d="M853.469 421.737L853.453 429.159L854.513 429.161L854.53 421.739L853.469 421.737Z" fill="white"/>
<path d="M850.281 424.912L850.278 425.971L857.703 425.988L857.706 424.928L850.281 424.912Z" fill="white"/>
<path d="M483.01 52.9928L483.008 54.0526L484.068 54.0549L484.071 52.9951L483.01 52.9928Z" fill="white"/>
<path d="M589.086 53.2259L589.084 54.2858L590.144 54.2881L590.147 53.2282L589.086 53.2259Z" fill="white"/>
<path d="M695.163 53.4593L695.161 54.5192L696.221 54.5215L696.224 53.4617L695.163 53.4593Z" fill="white"/>
<path d="M801.239 53.6907L801.237 54.7505L802.297 54.7529L802.3 53.693L801.239 53.6907Z" fill="white"/>
<path d="M482.778 159.025L482.776 160.085L483.836 160.087L483.838 159.027L482.778 159.025Z" fill="white"/>
<path d="M588.855 159.257L588.853 160.317L589.913 160.319L589.915 159.26L588.855 159.257Z" fill="white"/>
<path d="M694.931 159.491L694.928 160.551L695.989 160.553L695.991 159.493L694.931 159.491Z" fill="white"/>
<path d="M801.007 159.723L801.004 160.783L802.065 160.785L802.067 159.725L801.007 159.723Z" fill="white"/>
<path d="M482.545 265.056L482.543 266.116L483.603 266.118L483.606 265.059L482.545 265.056Z" fill="white"/>
<path d="M588.621 265.29L588.619 266.349L589.679 266.352L589.682 265.292L588.621 265.29Z" fill="white"/>
<path d="M694.697 265.522L694.695 266.582L695.755 266.584L695.758 265.524L694.697 265.522Z" fill="white"/>
<path d="M800.774 265.754L800.772 266.814L801.832 266.817L801.835 265.757L800.774 265.754Z" fill="white"/>
<path d="M482.312 371.089L482.309 372.148L483.37 372.151L483.372 371.091L482.312 371.089Z" fill="white"/>
<path d="M588.388 371.321L588.385 372.381L589.446 372.383L589.448 371.323L588.388 371.321Z" fill="white"/>
<path d="M694.465 371.554L694.463 372.614L695.523 372.617L695.525 371.557L694.465 371.554Z" fill="white"/>
<path d="M800.541 371.786L800.539 372.846L801.599 372.848L801.601 371.788L800.541 371.786Z" fill="white"/>
<path opacity="0.2" d="M922.565 0.000123538L921.63 425.185L922.693 425.187L923.628 0.00246089L922.565 0.000123538Z" fill="white"/>
<path opacity="0.2" d="M943.834 0.0473953L942.898 425.232L943.962 425.235L944.897 0.0497327L943.834 0.0473953Z" fill="white"/>
<path opacity="0.5" d="M965.101 0.0936599L964.166 425.279L965.23 425.281L966.165 0.0959995L965.101 0.0936599Z" fill="white"/>
<path opacity="0.2" d="M986.37 0.139955L985.434 425.325L986.498 425.327L987.433 0.142292L986.37 0.139955Z" fill="white"/>
<path opacity="0.2" d="M1007.64 0.185976L1006.7 425.371L1007.77 425.373L1008.7 0.188313L1007.64 0.185976Z" fill="white"/>
<path opacity="0.2" d="M1028.91 0.233461L1027.97 425.418L1029.03 425.421L1029.97 0.235798L1028.91 0.233461Z" fill="white"/>
<path opacity="0.2" d="M1050.18 0.279787L1049.24 425.465L1050.3 425.467L1051.24 0.282124L1050.18 0.279787Z" fill="white"/>
<path opacity="0.5" d="M1071.44 0.326082L1070.51 425.511L1071.57 425.513L1072.51 0.328421L1071.44 0.326082Z" fill="white"/>
<path opacity="0.2" d="M1092.71 0.3743L1091.78 425.559L1092.84 425.562L1093.78 0.376637L1092.71 0.3743Z" fill="white"/>
<path opacity="0.2" d="M1113.98 0.419344L1113.04 425.604L1114.11 425.607L1115.04 0.421683L1113.98 0.419344Z" fill="white"/>
<path opacity="0.2" d="M1135.25 0.466859L1134.31 425.652L1135.38 425.654L1136.31 0.469199L1135.25 0.466859Z" fill="white"/>
<path opacity="0.2" d="M1156.52 0.513155L1155.58 425.698L1156.64 425.701L1157.58 0.515492L1156.52 0.513155Z" fill="white"/>
<path opacity="0.5" d="M1177.79 0.560487L1176.85 425.745L1177.91 425.748L1178.85 0.562825L1177.79 0.560487Z" fill="white"/>
<path opacity="0.2" d="M1199.05 0.606721L1198.12 425.792L1199.18 425.794L1200.12 0.609059L1199.05 0.606721Z" fill="white"/>
<path opacity="0.2" d="M1220.32 0.653993L1219.39 425.839L1220.45 425.841L1221.38 0.656333L1220.32 0.653993Z" fill="white"/>
<path opacity="0.2" d="M1241.59 0.700288L1240.65 425.885L1241.72 425.888L1242.65 0.702628L1241.59 0.700288Z" fill="white"/>
<path opacity="0.2" d="M1262.86 0.746522L1261.92 425.932L1262.99 425.934L1263.92 0.74886L1262.86 0.746522Z" fill="white"/>
<path opacity="0.5" d="M1283.6 1.32324L1282.66 425.447L1283.72 425.45L1284.66 1.32557L1283.6 1.32324Z" fill="white"/>
<path opacity="0.2" d="M859.2 41.8463L859.197 42.9092L1284.56 43.8442L1284.56 42.7814L859.2 41.8463Z" fill="white"/>
<path opacity="0.2" d="M859.153 63.1063L859.151 64.1691L1284.52 65.1042L1284.52 64.0413L859.153 63.1063Z" fill="white"/>
<path opacity="0.2" d="M859.106 84.3652L859.104 85.428L1284.47 86.3631L1284.47 85.3002L859.106 84.3652Z" fill="white"/>
<path opacity="0.5" d="M859.06 105.624L859.057 106.688L1284.42 107.623L1284.42 106.559L859.06 105.624Z" fill="white"/>
<path opacity="0.2" d="M859.013 126.884L859.01 127.947L1284.37 128.882L1284.38 127.819L859.013 126.884Z" fill="white"/>
<path opacity="0.2" d="M858.966 148.144L858.964 149.207L1284.33 150.142L1284.33 149.079L858.966 148.144Z" fill="white"/>
<path opacity="0.2" d="M858.919 169.404L858.917 170.467L1284.28 171.402L1284.28 170.339L858.919 169.404Z" fill="white"/>
<path opacity="0.2" d="M858.873 190.662L858.87 191.725L1284.23 192.66L1284.24 191.597L858.873 190.662Z" fill="white"/>
<path opacity="0.5" d="M858.826 211.921L858.824 212.985L1284.19 213.92L1284.19 212.856L858.826 211.921Z" fill="white"/>
<path opacity="0.2" d="M858.78 233.181L858.778 234.244L1284.14 235.179L1284.14 234.116L858.78 233.181Z" fill="white"/>
<path opacity="0.2" d="M858.733 254.44L858.73 255.503L1284.09 256.439L1284.1 255.375L858.733 254.44Z" fill="white"/>
<path opacity="0.2" d="M858.686 275.699L858.684 276.762L1284.05 277.697L1284.05 276.634L858.686 275.699Z" fill="white"/>
<path opacity="0.2" d="M858.64 296.958L858.638 298.021L1284 298.956L1284 297.894L858.64 296.958Z" fill="white"/>
<path opacity="0.5" d="M858.593 318.218L858.591 319.281L1283.95 320.216L1283.96 319.153L858.593 318.218Z" fill="white"/>
<path opacity="0.2" d="M858.546 339.477L858.544 340.54L1283.91 341.477L1283.91 340.414L858.546 339.477Z" fill="white"/>
<path opacity="0.2" d="M858.5 360.736L858.498 361.8L1283.86 362.737L1283.86 361.673L858.5 360.736Z" fill="white"/>
<path opacity="0.2" d="M858.454 381.996L858.451 383.06L1283.82 383.998L1283.82 382.934L858.454 381.996Z" fill="white"/>
<path opacity="0.2" d="M858.407 403.256L858.404 404.319L1283.77 405.257L1283.77 404.194L858.407 403.256Z" fill="white"/>
<path opacity="0.5" d="M858.892 423.988L858.89 425.048L1283.19 425.98L1283.19 424.921L858.892 423.988Z" fill="white"/>
<path d="M1283.37 103.642L1283.35 111.064L1284.41 111.066L1284.43 103.644L1283.37 103.642Z" fill="white"/>
<path d="M1280.18 106.816L1280.18 107.875L1287.6 107.892L1287.61 106.832L1280.18 106.816Z" fill="white"/>
<path d="M1283.14 209.674L1283.12 217.096L1284.18 217.099L1284.2 209.677L1283.14 209.674Z" fill="white"/>
<path d="M1279.95 212.849L1279.95 213.909L1287.37 213.925L1287.37 212.865L1279.95 212.849Z" fill="white"/>
<path d="M1282.91 315.706L1282.89 323.128L1283.95 323.13L1283.97 315.708L1282.91 315.706Z" fill="white"/>
<path d="M1279.72 318.881L1279.71 319.94L1287.14 319.957L1287.14 318.897L1279.72 318.881Z" fill="white"/>
<path d="M965.141 102.944L965.125 110.366L966.185 110.368L966.201 102.946L965.141 102.944Z" fill="white"/>
<path d="M961.952 106.118L961.95 107.178L969.375 107.195L969.377 106.135L961.952 106.118Z" fill="white"/>
<path d="M964.909 208.976L964.892 216.398L965.953 216.4L965.969 208.978L964.909 208.976Z" fill="white"/>
<path d="M961.72 212.151L961.718 213.211L969.143 213.227L969.145 212.167L961.72 212.151Z" fill="white"/>
<path d="M964.676 315.008L964.66 322.43L965.72 322.432L965.737 315.01L964.676 315.008Z" fill="white"/>
<path d="M961.486 318.182L961.484 319.242L968.909 319.258L968.911 318.198L961.486 318.182Z" fill="white"/>
<path d="M964.443 421.039L964.426 428.461L965.487 428.463L965.503 421.041L964.443 421.039Z" fill="white"/>
<path d="M961.254 424.213L961.251 425.273L968.677 425.29L968.679 424.23L961.254 424.213Z" fill="white"/>
<path d="M1071.22 103.177L1071.2 110.599L1072.26 110.602L1072.28 103.18L1071.22 103.177Z" fill="white"/>
<path d="M1068.03 106.351L1068.03 107.411L1075.45 107.427L1075.45 106.367L1068.03 106.351Z" fill="white"/>
<path d="M1070.98 209.209L1070.97 216.631L1072.03 216.633L1072.04 209.211L1070.98 209.209Z" fill="white"/>
<path d="M1067.8 212.382L1067.79 213.442L1075.22 213.458L1075.22 212.399L1067.8 212.382Z" fill="white"/>
<path d="M1070.75 315.241L1070.74 322.663L1071.8 322.665L1071.81 315.243L1070.75 315.241Z" fill="white"/>
<path d="M1067.56 318.414L1067.56 319.474L1074.99 319.491L1074.99 318.431L1067.56 318.414Z" fill="white"/>
<path d="M1070.52 421.272L1070.5 428.694L1071.56 428.697L1071.58 421.275L1070.52 421.272Z" fill="white"/>
<path d="M1067.33 424.446L1067.33 425.506L1074.75 425.522L1074.76 424.462L1067.33 424.446Z" fill="white"/>
<path d="M1177.29 103.41L1177.28 110.832L1178.34 110.834L1178.35 103.412L1177.29 103.41Z" fill="white"/>
<path d="M1174.11 106.584L1174.1 107.644L1181.53 107.66L1181.53 106.601L1174.11 106.584Z" fill="white"/>
<path d="M1177.06 209.441L1177.04 216.863L1178.1 216.865L1178.12 209.443L1177.06 209.441Z" fill="white"/>
<path d="M1173.87 212.615L1173.87 213.675L1181.29 213.692L1181.3 212.632L1173.87 212.615Z" fill="white"/>
<path d="M1176.83 315.473L1176.81 322.895L1177.87 322.897L1177.89 315.475L1176.83 315.473Z" fill="white"/>
<path d="M1173.64 318.647L1173.64 319.707L1181.06 319.723L1181.06 318.663L1173.64 318.647Z" fill="white"/>
<path d="M1176.6 421.505L1176.58 428.927L1177.64 428.929L1177.66 421.507L1176.6 421.505Z" fill="white"/>
<path d="M1173.41 424.679L1173.4 425.739L1180.83 425.755L1180.83 424.696L1173.41 424.679Z" fill="white"/>
<path d="M1282.67 421.737L1282.66 429.159L1283.72 429.161L1283.73 421.739L1282.67 421.737Z" fill="white"/>
<path d="M1279.48 424.912L1279.48 425.971L1286.91 425.988L1286.91 424.928L1279.48 424.912Z" fill="white"/>
<path d="M912.212 52.9928L912.21 54.0526L913.27 54.0549L913.273 52.9951L912.212 52.9928Z" fill="white"/>
<path d="M1018.29 53.2259L1018.29 54.2858L1019.35 54.2881L1019.35 53.2282L1018.29 53.2259Z" fill="white"/>
<path d="M1124.37 53.4593L1124.36 54.5192L1125.42 54.5215L1125.43 53.4617L1124.37 53.4593Z" fill="white"/>
<path d="M1230.44 53.6907L1230.44 54.7505L1231.5 54.7529L1231.5 53.693L1230.44 53.6907Z" fill="white"/>
<path d="M911.98 159.025L911.978 160.085L913.038 160.087L913.04 159.027L911.98 159.025Z" fill="white"/>
<path d="M1018.06 159.257L1018.05 160.317L1019.11 160.319L1019.12 159.26L1018.06 159.257Z" fill="white"/>
<path d="M1124.13 159.491L1124.13 160.551L1125.19 160.553L1125.19 159.493L1124.13 159.491Z" fill="white"/>
<path d="M1230.21 159.723L1230.21 160.783L1231.27 160.785L1231.27 159.725L1230.21 159.723Z" fill="white"/>
<path d="M911.747 265.056L911.745 266.116L912.805 266.118L912.808 265.059L911.747 265.056Z" fill="white"/>
<path d="M1017.82 265.29L1017.82 266.349L1018.88 266.352L1018.88 265.292L1017.82 265.29Z" fill="white"/>
<path d="M1123.9 265.522L1123.9 266.582L1124.96 266.584L1124.96 265.524L1123.9 265.522Z" fill="white"/>
<path d="M1229.98 265.754L1229.97 266.814L1231.03 266.817L1231.04 265.757L1229.98 265.754Z" fill="white"/>
<path d="M911.514 371.089L911.512 372.148L912.572 372.151L912.574 371.091L911.514 371.089Z" fill="white"/>
<path d="M1017.59 371.321L1017.59 372.381L1018.65 372.383L1018.65 371.323L1017.59 371.321Z" fill="white"/>
<path d="M1123.67 371.554L1123.66 372.614L1124.72 372.617L1124.73 371.557L1123.67 371.554Z" fill="white"/>
<path d="M1229.74 371.786L1229.74 372.846L1230.8 372.848L1230.8 371.788L1229.74 371.786Z" fill="white"/>
</svg>
