<svg width="36" height="37" viewBox="0 0 36 37" fill="none" xmlns="http://www.w3.org/2000/svg">
<rect x="0.5" y="0.675293" width="35" height="35" rx="17.5" stroke="white"/>
<path fill-rule="evenodd" clip-rule="evenodd" d="M28 18.1753C28 23.6981 23.5228 28.1753 18 28.1753C12.4772 28.1753 8 23.6981 8 18.1753C8 12.6524 12.4772 8.17529 18 8.17529C23.5228 8.17529 28 12.6524 28 18.1753ZM18.3584 15.5577C17.3857 15.9623 15.4418 16.7996 12.5266 18.0697C12.0532 18.258 11.8052 18.4421 11.7826 18.6222C11.7445 18.9265 12.1256 19.0464 12.6446 19.2096C12.7152 19.2318 12.7883 19.2548 12.8633 19.2791C13.3739 19.4451 14.0607 19.6393 14.4177 19.647C14.7416 19.654 15.1031 19.5205 15.5022 19.2464C18.226 17.4078 19.632 16.4785 19.7203 16.4584C19.7825 16.4443 19.8688 16.4265 19.9273 16.4785C19.9858 16.5305 19.98 16.6289 19.9738 16.6553C19.9361 16.8162 18.4401 18.207 17.6659 18.9268C17.4246 19.1512 17.2534 19.3103 17.2184 19.3467C17.14 19.4281 17.0601 19.5051 16.9833 19.5791C16.509 20.0364 16.1533 20.3793 17.003 20.9393C17.4114 21.2084 17.7381 21.4309 18.0641 21.6529C18.4201 21.8954 18.7752 22.1372 19.2347 22.4383C19.3517 22.5151 19.4635 22.5948 19.5724 22.6724C19.9867 22.9678 20.359 23.2331 20.8188 23.1908C21.086 23.1662 21.3621 22.915 21.5022 22.1656C21.8335 20.3946 22.4847 16.5573 22.6352 14.9761C22.6484 14.8376 22.6318 14.6603 22.6185 14.5824C22.6051 14.5046 22.5773 14.3937 22.4761 14.3116C22.3563 14.2144 22.1714 14.1939 22.0886 14.1954C21.7125 14.202 21.1355 14.4026 18.3584 15.5577Z" fill="white"/>
</svg>
