<svg width="34" height="37" viewBox="0 0 34 37" fill="none" xmlns="http://www.w3.org/2000/svg">
<rect x="1" y="0.675293" width="32" height="35" rx="16" stroke="white"/>
<path d="M20.9992 8.17529H17.645V21.7985C17.645 23.4217 16.355 24.755 14.7496 24.755C13.1442 24.755 11.8541 23.4217 11.8541 21.7985C11.8541 20.2043 13.1155 18.8999 14.6636 18.842V15.4217C11.2521 15.4796 8.5 18.2912 8.5 21.7985C8.5 25.3347 11.3094 28.1753 14.7783 28.1753C18.247 28.1753 21.0565 25.3057 21.0565 21.7985V14.813C22.3179 15.7405 23.8659 16.2912 25.5 16.3202V12.8999C22.9773 12.813 20.9992 10.726 20.9992 8.17529Z" fill="white"/>
</svg>
