<svg width="36" height="37" viewBox="0 0 36 37" fill="none" xmlns="http://www.w3.org/2000/svg">
<rect x="0.5" y="0.675293" width="35" height="35" rx="17.5" stroke="white"/>
<path d="M17.9998 8.17529C12.4771 8.17529 8 12.6689 8 18.212C8 22.9189 11.2287 26.8685 15.5842 27.9533V21.2793H13.5223V18.212H15.5842V16.8904C15.5842 13.4743 17.1246 11.8909 20.4662 11.8909C21.0997 11.8909 22.1929 12.0157 22.6401 12.1402V14.9204C22.4041 14.8955 21.9941 14.883 21.4849 14.883C19.8454 14.883 19.2118 15.5065 19.2118 17.1273V18.212H22.4781L21.9169 21.2793H19.2118V28.1753C24.1633 27.5751 28 23.3436 28 18.212C27.9996 12.6689 23.5225 8.17529 17.9998 8.17529Z" fill="white"/>
</svg>
