<svg width="36" height="37" viewBox="0 0 36 37" fill="none" xmlns="http://www.w3.org/2000/svg">
<rect x="0.5" y="0.675293" width="35" height="35" rx="17.5" stroke="white"/>
<path d="M26.5195 8.17529H9.47656C8.66016 8.17529 8 8.81982 8 9.6167V26.73C8 27.5269 8.66016 28.1753 9.47656 28.1753H26.5195C27.3359 28.1753 28 27.5269 28 26.7339V9.6167C28 8.81982 27.3359 8.17529 26.5195 8.17529ZM13.9336 25.2183H10.9648V15.6714H13.9336V25.2183ZM12.4492 14.3706C11.4961 14.3706 10.7266 13.6011 10.7266 12.6519C10.7266 11.7026 11.4961 10.9331 12.4492 10.9331C13.3984 10.9331 14.168 11.7026 14.168 12.6519C14.168 13.5972 13.3984 14.3706 12.4492 14.3706ZM25.043 25.2183H22.0781V20.5776C22.0781 19.4722 22.0586 18.0464 20.5352 18.0464C18.9922 18.0464 18.7578 19.2534 18.7578 20.4995V25.2183H15.7969V15.6714H18.6406V16.9761H18.6797C19.0742 16.2261 20.043 15.4331 21.4844 15.4331C24.4883 15.4331 25.043 17.4097 25.043 19.98V25.2183Z" fill="white"/>
</svg>
