<svg width="37" height="37" viewBox="0 0 37 37" fill="none" xmlns="http://www.w3.org/2000/svg">
<rect x="1" y="0.675293" width="35" height="35" rx="17.5" stroke="white"/>
<path d="M18.5002 8.17529C12.8669 8.17529 8.5 12.3017 8.5 17.8752C8.5 20.7908 9.69482 23.3096 11.6405 25.05C11.8041 25.196 11.9025 25.4012 11.9093 25.6199L11.9637 27.3991C11.9809 27.9663 12.5673 28.3355 13.0861 28.1063L15.0709 27.2299C15.2393 27.1559 15.4277 27.1419 15.6049 27.1911C16.5174 27.4419 17.4878 27.5755 18.4998 27.5755C24.1331 27.5755 28.5 23.4492 28.5 17.8756C28.5 12.3021 24.1335 8.17529 18.5002 8.17529ZM24.6971 15.2868L21.2155 20.6676C21.0387 20.9408 20.6742 21.0188 20.401 20.842L17.1758 18.7552C17.051 18.6744 16.8894 18.6768 16.767 18.7612L13.1317 21.2684C12.6013 21.634 11.9529 21.0048 12.3029 20.464L15.7849 15.0832C15.9617 14.81 16.3262 14.732 16.599 14.9088L19.825 16.996C19.9498 17.0768 20.1114 17.0744 20.2338 16.99L23.8683 14.4832C24.3987 14.1172 25.0471 14.7468 24.6971 15.2876V15.2868Z" fill="white"/>
</svg>
